{"glyphs":{":":{"x_min":0,"x_max":262,"ha":262,"o":"m 120 -12 l 65 53 l 146 102 l 197 38 z m 120 345 l 65 410 l 146 458 l 197 394 z"},"$":{"x_min":0,"x_max":523,"ha":523,"o":"m 275 293 l 275 44 q 317 58 340 90 q 363 123 363 169 q 363 210 342 239 q 322 269 275 293 z m 234 389 l 234 599 q 198 588 177 562 q 157 535 157 498 q 157 463 176 436 q 195 409 234 389 z m 403 623 l 399 564 q 379 583 351 594 q 323 604 290 604 l 275 604 l 275 373 q 363 337 406 291 q 448 245 448 187 q 448 122 399 70 q 351 18 275 5 l 275 -83 l 234 -83 l 234 0 q 187 3 146 12 q 106 21 74 36 l 74 101 q 99 70 139 54 q 180 38 234 37 l 234 308 q 152 341 114 383 q 76 424 76 480 q 76 541 119 584 q 162 627 234 638 l 234 713 l 275 713 l 275 640 q 312 640 344 636 q 375 631 403 623 z"},"?":{"x_min":0,"x_max":352,"ha":352,"o":"m 122 117 q 118 132 115 149 q 113 167 113 184 q 113 256 168 329 q 175 338 179 343 q 220 400 232 430 q 244 461 244 493 q 244 539 215 568 q 186 598 141 598 q 111 598 84 588 q 58 577 37 558 l 43 612 q 67 632 101 642 q 135 653 173 653 q 243 653 286 613 q 328 574 328 509 q 328 421 240 315 q 221 292 211 279 q 177 235 156 197 q 135 158 122 117 z m 62 28 l 126 97 l 199 57 l 140 -12 z"},"<":{"x_min":0,"x_max":833,"ha":833,"o":"m 704 497 l 216 298 l 704 100 l 704 37 l 129 273 l 129 323 l 704 559 z"},"'":{"x_min":0,"x_max":149,"ha":149,"o":"m 103 700 l 103 430 l 46 430 l 46 700 z"},"=":{"x_min":0,"x_max":833,"ha":833,"o":"m 709 233 l 709 176 l 124 176 l 124 233 z m 709 420 l 709 363 l 124 363 l 124 420 z"},"a":{"x_min":0,"x_max":405,"ha":405,"o":"m 271 240 q 159 195 130 171 q 102 146 102 112 q 102 83 124 65 q 145 47 180 47 q 227 47 249 77 q 271 107 271 170 z m 286 -6 q 280 10 277 29 q 274 49 273 72 q 253 31 221 10 q 188 -12 146 -12 q 94 -12 57 19 q 20 51 20 93 q 20 132 51 161 q 82 189 185 235 q 247 262 260 279 q 274 296 274 335 q 274 382 254 404 q 233 426 190 426 q 170 426 154 419 q 138 412 129 399 q 125 393 118 377 q 100 333 70 333 q 54 333 43 343 q 33 354 33 370 q 33 409 85 433 q 137 458 223 458 q 289 458 318 436 q 347 414 347 362 q 347 354 344 289 q 342 224 342 167 q 342 94 350 52 q 359 10 376 0 z"},"L":{"x_min":0,"x_max":440,"ha":440,"o":"m 58 641 l 194 641 q 180 626 175 574 q 169 521 169 349 l 169 308 q 169 201 171 129 q 174 57 178 37 q 188 37 199 36 q 210 36 231 36 q 309 36 351 52 q 394 68 420 106 l 398 6 q 377 2 352 0 q 327 -2 298 -2 q 275 -2 207 -1 q 139 0 93 0 l 58 0 q 72 15 77 67 q 83 120 83 293 l 83 334 q 83 522 77 574 q 72 626 58 641 z"},"3":{"x_min":0,"x_max":523,"ha":523,"o":"m 164 360 q 237 383 274 419 q 312 456 312 503 q 312 549 284 575 q 256 601 206 601 q 180 601 153 592 q 126 583 102 566 q 102 611 139 632 q 176 653 254 653 q 318 653 357 619 q 397 584 397 530 q 397 470 362 430 q 328 389 256 366 q 343 337 385 291 q 427 244 427 175 q 427 97 367 42 q 308 -12 220 -12 q 144 -12 104 13 q 63 39 62 87 q 89 64 122 52 q 154 40 189 40 q 256 40 297 80 q 337 119 337 184 q 337 250 292 295 q 248 341 164 360 z"},";":{"x_min":0,"x_max":262,"ha":262,"o":"m 156 90 q 167 64 173 45 q 179 25 179 10 q 179 -20 156 -47 q 133 -74 73 -111 q 86 -90 92 -70 q 98 -50 98 -30 q 98 -11 92 9 q 86 29 74 51 z m 120 345 l 65 410 l 146 458 l 197 394 z"},"J":{"x_min":0,"x_max":252,"ha":252,"o":"m 58 641 l 194 641 q 180 627 175 573 q 169 518 169 355 l 169 236 q 169 8 142 -60 q 115 -129 45 -153 l 44 -150 q 65 -103 74 -14 q 83 74 83 334 q 83 522 77 574 q 72 626 58 641 z"},"V":{"x_min":0,"x_max":551,"ha":551,"o":"m 216 -5 q 154 229 94 400 q 34 572 -9 641 l 64 641 q 89 641 96 636 q 103 631 110 611 q 123 580 135 543 q 148 506 165 450 l 282 76 l 391 349 q 422 427 440 497 q 459 566 459 598 q 459 607 457 618 q 456 628 452 641 l 579 641 q 509 542 368 177 q 322 59 297 -5 z"},"\"":{"x_min":0,"x_max":288,"ha":288,"o":"m 242 700 l 242 430 l 184 430 l 184 700 z m 103 700 l 103 430 l 46 430 l 46 700 z"},"7":{"x_min":0,"x_max":523,"ha":523,"o":"m 501 641 l 490 623 q 454 564 444 545 l 247 204 q 177 83 137 36 q 96 -10 60 -16 q 106 57 185 207 q 263 357 370 577 l 290 577 q 200 577 148 572 q 96 567 75 556 q 76 584 79 604 q 82 625 87 642 q 121 640 166 638 q 211 637 277 637 q 340 637 395 638 q 451 639 501 641 z"},"S":{"x_min":0,"x_max":481,"ha":481,"o":"m 29 26 l 29 135 q 59 85 105 59 q 151 33 209 33 q 267 33 303 67 q 340 102 340 155 q 340 196 315 228 q 291 260 233 291 l 220 298 q 51 391 51 486 q 51 560 108 606 q 166 653 259 653 q 289 653 324 651 q 359 649 365 649 q 367 649 373 648 q 379 648 384 648 l 409 648 l 409 544 q 390 576 356 592 q 322 609 277 609 q 214 609 178 582 q 142 554 142 508 q 142 439 274 369 l 281 366 q 364 322 399 279 q 435 236 435 182 q 435 102 369 45 q 303 -12 206 -12 q 167 -12 124 -3 q 81 6 29 26 z"},"}":{"x_min":0,"x_max":500,"ha":500,"o":"m 275 543 l 275 424 q 275 350 302 319 q 329 289 395 289 q 398 289 406 290 q 413 290 417 290 l 417 228 q 413 228 406 229 q 398 229 395 229 q 329 229 302 199 q 275 168 275 94 l 275 -24 q 275 -99 264 -130 q 253 -161 227 -178 q 208 -191 179 -197 q 151 -202 101 -202 l 81 -202 l 81 -141 q 85 -141 92 -142 q 100 -142 103 -142 q 162 -142 183 -119 q 204 -96 204 -22 l 204 95 q 204 176 225 210 q 247 244 301 259 q 247 274 225 308 q 204 342 204 423 l 204 541 q 204 614 183 637 q 161 660 100 660 l 81 660 l 81 721 l 98 721 q 147 721 177 715 q 207 709 227 696 q 253 679 264 648 q 275 617 275 543 z"},"Z":{"x_min":0,"x_max":620,"ha":620,"o":"m 0 0 q 208 267 296 387 q 384 506 445 600 l 302 600 q 176 600 128 588 q 80 576 51 547 l 65 643 q 75 642 85 642 q 96 641 115 641 l 152 641 l 414 641 q 520 641 549 642 q 577 642 583 643 l 560 612 q 248 208 139 42 q 242 39 281 38 q 320 37 341 37 q 464 37 515 53 q 565 70 595 110 l 576 0 z"},"x":{"x_min":0,"x_max":370,"ha":370,"o":"m 90 452 q 92 452 94 453 q 96 453 97 453 q 107 453 115 446 q 122 439 136 411 l 195 289 l 264 396 q 287 431 314 460 q 342 488 375 512 l 218 259 l 310 86 q 331 47 346 27 q 362 7 378 0 l 325 -10 q 323 -10 319 -11 q 312 -12 310 -12 q 294 -12 283 -2 q 271 8 256 37 l 171 198 l 100 74 l 99 72 q 75 29 75 11 q 75 8 76 5 q 77 3 78 0 l -16 0 q 21 25 80 118 q 86 128 90 134 l 149 226 l 78 368 q 55 413 43 428 q 32 443 20 447 z"},")":{"x_min":0,"x_max":264,"ha":264,"o":"m 21 694 q 108 631 155 517 q 202 403 202 253 q 202 104 152 -5 q 103 -114 12 -164 q 67 -70 93 28 q 119 125 119 239 q 119 355 95 468 q 70 581 21 694 z"},"&":{"x_min":0,"x_max":611,"ha":611,"o":"m 253 415 q 291 442 308 470 q 325 499 325 532 q 325 569 306 592 q 287 615 257 615 q 227 615 208 596 q 189 577 189 548 q 189 525 203 496 q 217 466 253 415 z m 376 106 l 206 336 q 163 304 142 267 q 121 230 121 187 q 121 126 157 88 q 194 51 254 51 q 286 51 316 64 q 345 78 376 106 z m 454 0 l 399 74 q 357 31 312 9 q 267 -12 219 -12 q 139 -12 88 33 q 37 78 37 148 q 37 207 73 259 q 108 312 183 366 q 146 414 127 452 q 108 490 108 520 q 108 576 154 615 q 199 653 268 653 q 328 653 366 623 q 405 593 405 546 q 405 509 374 472 q 343 434 274 387 l 432 167 q 459 199 473 230 q 487 261 487 287 q 487 298 485 306 q 482 314 478 321 l 581 321 q 563 299 524 238 q 485 176 458 142 l 531 53 q 542 40 555 26 q 568 13 583 0 z"},"_":{"x_min":0,"x_max":500,"ha":500,"o":"m 500 -178 l 500 -236 l 0 -236 l 0 -178 z"},"v":{"x_min":0,"x_max":389,"ha":389,"o":"m 162 -5 q 100 206 56 323 q 11 441 -8 445 l 65 453 l 74 453 q 96 453 150 267 q 186 146 210 68 q 256 192 283 285 q 310 378 310 410 q 310 420 308 429 q 306 438 301 447 l 405 447 q 382 425 332 301 q 281 177 221 -5 z"},"O":{"x_min":0,"x_max":694,"ha":694,"o":"m 362 36 q 453 36 505 107 q 557 177 557 303 q 557 445 501 527 q 446 608 349 608 q 250 608 194 536 q 138 464 138 335 q 138 193 197 115 q 256 36 362 36 z m 331 -12 q 190 -12 114 71 q 37 154 37 308 q 37 476 120 564 q 203 653 360 653 q 508 653 583 574 q 657 495 657 339 q 657 179 568 83 q 479 -12 331 -12 z"},"(":{"x_min":0,"x_max":264,"ha":264,"o":"m 243 -164 q 156 -101 109 14 q 62 128 62 277 q 62 426 112 535 q 161 644 252 694 q 197 600 171 502 q 145 405 145 291 q 145 175 169 62 q 193 -51 243 -164 z"},"C":{"x_min":0,"x_max":593,"ha":593,"o":"m 526 641 l 520 504 q 499 556 460 583 q 421 609 366 609 q 259 609 198 538 q 136 467 136 343 q 136 214 203 138 q 271 62 383 62 q 436 62 482 83 q 528 103 562 141 q 544 71 483 30 q 422 -12 336 -12 q 205 -12 121 79 q 37 170 37 314 q 37 473 127 563 q 218 653 377 653 q 402 653 451 647 q 501 641 526 641 z"},"W":{"x_min":0,"x_max":808,"ha":808,"o":"m 544 -5 q 540 26 532 59 q 524 93 510 141 l 398 537 q 368 416 310 236 q 251 57 236 -5 l 150 -5 q 119 245 76 428 q 33 612 4 641 l 68 641 q 102 641 113 628 q 123 614 136 553 q 175 360 214 83 l 215 78 l 312 371 q 332 432 344 485 q 355 539 355 568 q 355 587 348 606 q 342 625 329 641 l 500 641 q 488 625 483 609 q 477 594 477 579 q 477 569 480 552 q 483 534 489 513 l 605 78 l 675 361 q 693 434 703 489 q 713 543 713 570 q 713 593 708 610 q 704 626 694 641 l 826 641 q 791 603 752 483 q 713 363 627 -5 z"},"A":{"x_min":0,"x_max":606,"ha":606,"o":"m 192 315 l 394 315 l 300 573 z m -31 0 q 15 55 61 137 q 106 220 157 339 q 200 438 227 516 q 255 594 255 610 q 255 618 253 625 q 251 633 247 641 l 371 641 q 444 399 508 232 q 573 66 619 0 l 510 0 l 409 278 l 176 278 l 133 173 l 132 170 q 92 74 92 31 q 92 24 93 16 q 94 9 97 0 z"},"f":{"x_min":0,"x_max":236,"ha":236,"o":"m 139 223 l 139 127 q 139 59 144 34 q 148 9 160 0 l 46 0 q 58 9 62 34 q 67 59 67 127 l 67 223 l 67 412 q 57 412 47 413 q 38 414 27 415 l 27 447 l 67 447 l 67 466 l 67 495 q 67 569 70 599 q 74 628 82 643 q 97 670 137 686 q 177 702 233 702 q 267 702 285 691 q 303 681 303 661 q 303 648 292 640 q 281 631 265 631 q 247 631 222 649 q 198 667 188 667 q 162 667 150 628 q 138 589 138 501 q 138 479 138 468 q 139 457 139 447 l 216 447 q 216 446 216 443 q 217 440 217 439 q 217 425 204 419 q 190 414 139 412 z"},"Q":{"x_min":0,"x_max":676,"ha":676,"o":"m 389 13 q 467 -27 544 -50 q 621 -72 681 -72 q 691 -72 702 -71 q 713 -70 725 -69 q 700 -95 663 -109 q 627 -123 584 -123 q 513 -123 425 -89 q 337 -55 249 7 q 146 21 92 99 q 37 176 37 308 q 37 475 120 564 q 204 653 360 653 q 494 653 566 574 q 637 495 637 347 q 637 212 571 123 q 504 33 389 13 z m 138 327 q 138 202 197 127 q 255 53 352 53 q 439 53 489 122 q 538 190 538 312 q 538 443 484 526 q 431 608 347 608 q 248 608 193 535 q 138 461 138 327 z"},"w":{"x_min":0,"x_max":581,"ha":581,"o":"m 390 -5 q 346 165 323 246 q 301 328 289 362 q 263 258 223 137 q 184 16 179 -5 l 114 -5 q 71 240 48 335 q 24 429 5 447 l 62 451 q 72 452 78 453 q 106 453 140 222 q 154 121 164 59 q 209 182 233 270 q 258 357 258 395 q 258 411 254 424 q 250 436 242 447 l 363 447 q 358 439 355 431 q 353 422 353 413 q 353 386 434 66 l 436 59 q 473 190 489 274 q 506 357 506 406 q 506 419 503 429 q 500 439 493 447 l 587 447 q 564 417 535 319 q 506 221 453 -5 z"},"-":{"x_min":0,"x_max":331,"ha":331,"o":"m 30 201 l 74 258 l 300 258 l 257 198 l 46 198 q 39 198 35 199 q 32 200 30 201 z"},"E":{"x_min":0,"x_max":495,"ha":495,"o":"m 58 0 q 72 15 77 67 q 83 120 83 293 l 83 334 q 83 522 77 574 q 72 626 58 641 l 120 641 q 187 641 271 643 q 355 644 373 644 q 374 644 379 644 q 394 643 408 643 l 416 549 q 404 580 369 592 q 333 604 234 604 l 178 604 q 173 583 171 534 q 169 486 169 394 l 169 361 q 181 360 197 359 q 212 359 247 359 q 306 359 346 362 q 386 364 418 370 q 391 338 345 325 q 300 312 195 312 q 192 312 184 312 q 175 313 169 313 l 169 248 q 169 156 171 107 q 173 58 178 37 l 236 37 q 335 37 385 53 q 435 69 462 106 l 445 6 q 425 2 399 0 q 374 -2 345 -2 q 322 -2 254 -1 q 186 0 140 0 z"},"s":{"x_min":0,"x_max":356,"ha":356,"o":"m 25 111 q 42 67 72 45 q 103 24 149 24 q 191 24 218 48 q 245 71 245 108 q 245 137 228 158 q 210 179 151 211 q 88 245 64 275 q 39 306 39 345 q 39 398 79 428 q 120 458 193 458 q 215 458 243 455 q 270 451 300 445 l 297 360 q 278 393 252 408 q 227 424 192 424 q 157 424 136 407 q 115 390 115 362 q 115 312 216 254 l 225 249 q 286 215 306 189 q 326 163 326 127 q 326 70 273 29 q 220 -12 145 -12 q 90 -12 54 1 q 18 14 18 33 q 18 41 20 62 q 21 83 25 111 z"},">":{"x_min":0,"x_max":833,"ha":833,"o":"m 704 323 l 704 273 l 129 37 l 129 100 l 617 298 l 129 497 l 129 559 z"},"l":{"x_min":0,"x_max":206,"ha":206,"o":"m 46 0 q 58 8 63 40 q 68 73 68 156 q 68 179 67 242 q 67 305 67 345 l 67 499 q 67 605 62 641 q 58 677 46 684 l 144 701 q 141 672 140 562 q 139 452 139 207 l 139 128 q 139 60 144 34 q 148 9 160 0 z"},"8":{"x_min":0,"x_max":523,"ha":523,"o":"m 286 390 q 318 408 335 443 q 353 478 353 523 q 353 565 330 592 q 307 618 272 618 q 234 618 209 592 q 185 566 185 525 q 185 486 209 454 q 233 422 286 390 z m 246 332 q 189 296 159 251 q 130 206 130 153 q 130 97 166 61 q 202 24 259 24 q 315 24 351 60 q 386 97 386 153 q 386 208 354 249 q 321 291 246 332 z m 211 350 q 158 380 129 421 q 101 461 101 506 q 101 575 149 614 q 198 653 284 653 q 355 653 395 623 q 435 594 435 541 q 435 490 406 448 q 376 407 316 374 q 404 320 439 272 q 474 225 474 162 q 474 83 415 35 q 356 -12 256 -12 q 163 -12 106 31 q 49 73 49 141 q 49 199 88 250 q 128 301 211 350 z"},"\\":{"x_min":0,"x_max":278,"ha":278,"o":"m 248 -93 l -24 653 l 30 653 l 302 -93 z"},"e":{"x_min":0,"x_max":426,"ha":426,"o":"m 125 318 l 134 318 q 136 318 158 317 q 180 316 201 316 l 214 316 q 280 316 296 323 q 311 330 311 350 q 311 380 287 402 q 264 424 229 424 q 188 424 159 394 q 130 365 125 318 z m 387 109 l 387 97 q 387 57 338 22 q 290 -12 227 -12 q 137 -12 83 51 q 30 114 30 221 q 30 330 86 394 q 143 458 238 458 q 307 458 351 421 q 394 383 394 326 q 394 303 368 295 q 341 287 216 287 q 179 287 158 288 q 137 288 119 289 q 115 276 114 262 q 112 248 112 232 q 112 148 152 99 q 191 51 259 51 q 295 51 327 65 q 358 80 387 109 z"},"b":{"x_min":0,"x_max":472,"ha":472,"o":"m 236 24 q 295 24 328 75 q 362 125 362 215 q 362 300 329 351 q 297 401 242 401 q 185 401 158 355 q 132 309 132 207 q 132 103 156 63 q 179 24 236 24 z m 54 -4 q 58 44 61 109 q 63 173 63 246 q 63 511 55 590 q 48 670 28 683 l 133 701 l 133 368 q 157 410 198 434 q 238 458 284 458 q 355 458 399 398 q 442 337 442 237 q 442 120 386 54 q 330 -12 230 -12 q 205 -12 162 -6 q 118 1 99 1 q 91 1 79 0 q 67 -1 54 -4 z"},"%":{"x_min":0,"x_max":613,"ha":613,"o":"m 393 155 q 393 87 408 55 q 423 23 454 23 q 485 23 501 57 q 516 90 516 159 q 516 225 501 259 q 486 293 457 293 q 427 293 410 257 q 393 221 393 155 z m 444 -12 q 386 -12 358 27 q 330 66 330 147 q 330 239 362 283 q 395 327 462 327 q 521 327 549 288 q 577 249 577 167 q 577 73 545 30 q 514 -12 444 -12 z m 98 481 q 98 414 113 381 q 128 349 159 349 q 190 349 206 383 q 221 417 221 485 q 221 550 206 585 q 191 619 162 619 q 131 619 115 583 q 98 547 98 481 z m 149 314 q 91 314 64 353 q 36 392 36 473 q 36 566 68 609 q 100 653 167 653 q 226 653 254 614 q 282 575 282 493 q 282 399 250 356 q 219 314 149 314 z m 47 0 l 508 641 l 565 641 l 104 0 z"},"m":{"x_min":0,"x_max":690,"ha":690,"o":"m 46 0 q 58 9 62 34 q 67 59 67 127 l 67 223 l 67 254 q 67 362 62 396 q 58 429 46 437 l 137 447 q 140 435 141 424 q 142 413 142 403 l 142 393 q 170 424 207 441 q 243 458 281 458 q 316 458 342 439 q 367 421 379 386 q 413 423 447 441 q 480 458 517 458 q 554 458 580 439 q 606 421 617 387 q 623 370 625 336 q 627 302 627 221 l 627 129 l 627 101 q 627 49 632 29 q 636 10 648 0 l 551 0 q 554 47 555 99 q 556 152 556 250 l 556 263 q 556 355 539 380 q 521 405 477 405 q 455 405 436 396 q 417 386 403 368 q 392 354 387 322 q 383 291 383 215 l 383 106 q 383 56 388 33 q 393 9 404 0 l 291 0 q 302 9 307 31 q 311 54 311 121 l 311 159 l 311 305 q 311 358 292 381 q 274 405 232 405 q 210 405 191 396 q 173 386 159 368 q 147 354 143 323 q 138 292 138 225 q 138 209 139 170 q 139 130 139 106 q 139 56 144 33 q 148 9 160 0 z"},"#":{"x_min":0,"x_max":769,"ha":769,"o":"m 475 421 l 346 421 l 300 288 l 428 288 z m 450 711 l 369 481 l 496 481 l 578 711 l 648 711 l 568 481 l 718 481 l 697 421 l 545 421 l 499 288 l 660 288 l 639 228 l 477 228 l 396 -1 l 325 -1 l 407 228 l 278 228 l 196 -1 l 126 -1 l 207 228 l 51 228 l 72 288 l 228 288 l 275 421 l 108 421 l 129 481 l 297 481 l 379 711 z"},",":{"x_min":0,"x_max":262,"ha":262,"o":"m 156 90 q 167 64 173 45 q 179 25 179 10 q 179 -20 156 -47 q 133 -74 73 -111 q 86 -90 92 -70 q 98 -50 98 -30 q 98 -11 92 9 q 86 29 74 51 z"},"n":{"x_min":0,"x_max":458,"ha":458,"o":"m 46 0 q 58 9 62 34 q 67 59 67 127 l 67 223 l 67 254 q 67 362 62 396 q 58 429 46 437 l 137 447 q 140 436 141 423 q 142 411 142 397 l 142 384 q 172 423 205 440 q 239 458 283 458 q 347 458 371 416 q 396 374 396 231 l 396 129 l 396 101 q 396 49 401 29 q 405 10 417 0 l 319 0 q 322 55 323 115 q 324 175 324 249 l 324 273 q 324 357 305 379 q 287 402 239 402 q 184 402 161 371 q 139 341 139 223 l 139 127 q 139 59 144 34 q 148 9 160 0 z"},"h":{"x_min":0,"x_max":458,"ha":458,"o":"m 46 0 q 59 7 64 45 q 69 83 69 177 q 69 208 68 305 q 67 403 67 469 l 67 550 q 67 622 62 648 q 58 675 46 684 l 145 701 l 137 378 q 171 421 204 440 q 237 458 283 458 q 322 458 348 439 q 375 420 386 385 q 392 368 394 333 q 396 298 396 216 l 396 120 l 396 105 q 396 51 401 31 q 405 10 417 0 l 319 0 q 322 45 323 115 q 324 184 324 297 q 324 355 305 378 q 285 402 239 402 q 184 402 161 371 q 139 341 139 223 l 139 127 q 139 59 144 34 q 148 9 160 0 z"},"z":{"x_min":0,"x_max":437,"ha":437,"o":"m 415 447 l 103 32 l 226 32 q 322 32 362 46 q 401 60 426 94 l 413 0 l -3 0 l 309 414 l 214 414 q 132 414 95 400 q 58 387 38 354 l 57 447 z"},"B":{"x_min":0,"x_max":537,"ha":537,"o":"m 169 394 l 169 370 l 196 370 q 286 370 333 405 q 381 440 381 506 q 381 556 344 581 q 308 606 236 606 q 223 606 208 605 q 194 604 178 603 q 173 582 171 536 q 169 489 169 403 z m 169 333 l 169 210 q 169 155 171 112 q 174 69 177 57 q 181 44 202 38 q 223 31 257 31 q 328 31 367 71 q 406 111 406 183 q 406 254 361 294 q 315 333 232 333 z m 126 0 l 58 0 q 72 15 77 67 q 83 120 83 293 l 83 334 q 83 522 77 574 q 72 626 58 641 l 142 641 q 175 641 235 645 q 295 648 323 648 q 396 648 437 616 q 477 584 477 527 q 477 473 438 431 q 398 390 322 364 q 411 354 460 308 q 509 263 509 191 q 509 103 443 49 q 376 -6 266 -6 q 239 -6 193 -3 q 146 0 126 0 z"},"K":{"x_min":0,"x_max":523,"ha":523,"o":"m 169 351 q 188 353 212 370 q 236 388 273 427 q 362 522 391 562 q 420 602 420 623 l 420 628 q 420 633 419 636 q 418 639 417 641 l 550 641 q 518 621 440 543 q 363 466 259 350 l 420 122 q 425 115 434 103 q 487 26 521 0 l 422 0 q 407 0 398 4 q 389 9 382 19 l 189 317 l 169 317 l 169 248 q 169 101 175 58 q 180 16 194 0 l 58 0 q 72 15 77 67 q 83 120 83 293 l 83 334 q 83 522 77 574 q 72 626 58 641 l 194 641 q 180 625 175 583 q 169 541 169 394 z"},"R":{"x_min":0,"x_max":528,"ha":528,"o":"m 87 641 q 146 641 218 645 q 290 648 304 648 q 380 648 419 615 q 458 583 458 520 q 458 458 419 410 q 381 362 306 331 l 449 132 q 485 83 515 50 q 545 17 569 0 l 474 0 q 455 0 445 5 q 435 10 424 26 l 253 266 q 234 292 218 301 q 202 309 177 309 l 169 309 l 169 248 q 169 101 175 58 q 180 16 194 0 l 58 0 q 72 15 77 67 q 83 120 83 293 l 83 334 q 83 522 77 574 q 72 626 58 641 z m 169 348 q 178 346 188 345 q 198 344 211 344 q 284 344 323 382 q 362 420 362 491 q 362 550 332 579 q 302 608 241 608 q 217 608 204 607 q 190 606 178 605 q 173 583 171 537 q 169 490 169 405 l 169 394 z"},"T":{"x_min":0,"x_max":544,"ha":544,"o":"m 203 0 q 217 15 222 65 q 228 116 228 282 l 228 321 q 228 402 227 465 q 225 528 222 587 l 116 587 q 81 587 59 581 q 37 575 17 562 l 41 641 l 549 641 q 532 614 507 602 q 482 590 441 590 l 319 589 q 316 522 315 453 q 314 384 314 307 q 314 118 320 66 q 325 15 339 0 z"},"P":{"x_min":0,"x_max":495,"ha":495,"o":"m 58 0 q 72 15 77 67 q 83 120 83 293 l 83 334 q 83 522 77 574 q 72 626 58 641 l 90 641 q 134 641 200 646 q 267 650 289 650 q 382 650 429 606 q 477 563 477 478 q 477 390 425 334 q 374 279 292 279 q 263 279 238 284 q 212 290 192 301 l 202 301 q 284 301 330 347 q 376 393 376 474 q 376 543 344 576 q 312 610 245 610 q 226 610 209 609 q 193 607 178 605 q 173 584 171 509 q 169 435 169 307 q 169 118 175 66 q 180 15 194 0 z"},"|":{"x_min":0,"x_max":500,"ha":500,"o":"m 281 764 l 281 -236 l 219 -236 l 219 764 z"},"t":{"x_min":0,"x_max":273,"ha":273,"o":"m 73 409 l 25 411 l 25 443 l 74 447 l 76 571 l 149 593 l 146 447 l 227 447 q 232 447 234 446 q 235 445 235 441 q 235 426 215 418 q 194 411 154 411 l 146 411 l 141 148 l 141 141 q 141 90 153 69 q 165 47 192 47 q 208 47 222 54 q 236 62 251 77 l 248 32 q 230 11 205 -1 q 181 -12 153 -12 q 111 -12 89 20 q 68 51 68 114 l 68 122 z"},"M":{"x_min":0,"x_max":775,"ha":775,"o":"m 358 -14 l 127 581 l 125 144 l 125 113 q 125 67 130 43 q 136 19 148 0 l 34 0 q 62 25 75 159 q 88 294 88 571 q 88 596 82 612 q 77 627 63 641 l 175 641 q 188 641 193 637 q 197 634 201 623 l 382 140 l 583 618 q 588 632 595 636 q 602 641 616 641 l 714 641 q 701 625 696 589 q 690 553 690 485 q 690 234 700 134 q 711 33 737 0 l 590 0 q 604 21 610 53 q 616 85 616 145 q 616 146 616 151 q 615 189 614 231 l 608 581 z"},"g":{"x_min":0,"x_max":454,"ha":454,"o":"m 196 16 q 130 -25 102 -57 q 73 -90 73 -123 q 73 -170 118 -200 q 163 -230 234 -230 q 292 -230 334 -192 q 376 -153 376 -103 q 376 -58 341 -33 q 307 -8 196 16 z m 303 308 q 303 361 280 395 q 257 429 223 429 q 189 429 169 403 q 148 377 148 334 q 148 284 172 252 q 197 219 233 219 q 264 219 284 243 q 303 268 303 308 z m 324 442 q 336 442 358 443 q 398 444 411 448 q 412 444 412 440 q 413 436 413 436 q 413 435 413 432 q 412 428 412 426 q 404 420 390 418 q 376 415 353 415 q 367 400 374 381 q 381 361 381 337 q 381 279 342 241 q 304 203 231 188 q 186 167 163 149 q 140 131 140 116 q 140 92 259 62 l 274 58 q 384 29 420 0 q 456 -30 456 -81 q 456 -122 431 -154 q 406 -187 329 -233 q 325 -235 317 -240 q 231 -292 169 -292 q 99 -292 50 -253 q 1 -214 1 -159 q 1 -95 103 -13 q 133 12 149 26 q 99 37 77 53 q 55 69 55 94 q 55 124 105 148 q 146 169 169 188 q 125 194 97 229 q 69 265 69 316 q 69 379 118 419 q 167 458 246 458 q 269 458 288 454 q 307 450 324 442 z"},"j":{"x_min":0,"x_max":206,"ha":206,"o":"m 144 458 q 141 425 140 387 q 138 349 138 298 q 138 241 140 130 q 142 20 142 -35 q 142 -153 113 -216 q 84 -279 24 -292 l 22 -289 q 47 -270 57 -168 q 67 -67 67 279 q 67 374 62 406 q 58 439 46 447 z m 72 519 l 41 591 l 120 630 l 154 558 z"},"i":{"x_min":0,"x_max":206,"ha":206,"o":"m 81 515 l 38 583 l 113 630 l 155 561 z m 46 0 q 58 9 62 34 q 67 59 67 127 l 67 223 l 67 279 q 67 378 62 409 q 58 439 46 447 q 75 448 99 450 q 123 453 144 458 q 141 435 140 372 q 139 310 139 182 l 139 125 q 139 60 144 34 q 148 9 160 0 z"},"y":{"x_min":0,"x_max":377,"ha":377,"o":"m 199 68 q 245 190 271 284 q 298 377 298 410 q 298 420 296 430 q 293 439 289 447 l 393 447 q 361 410 294 232 q 263 149 244 101 q 155 -125 88 -208 q 21 -292 -63 -292 q -99 -292 -124 -277 q -149 -262 -149 -243 q -149 -233 -139 -229 q -129 -225 -98 -225 q -88 -225 -73 -226 q -59 -226 -54 -226 q -2 -226 21 -216 q 44 -207 64 -182 q 100 -137 122 -88 q 144 -38 144 -4 q 144 17 120 111 q 95 204 58 314 q 31 392 19 416 q 7 440 -5 445 l 64 453 l 73 453 q 94 453 148 251 q 179 139 199 68 z"},"@":{"x_min":0,"x_max":1000,"ha":1000,"o":"m 631 412 l 659 471 l 713 471 l 644 194 q 641 182 640 172 q 638 163 638 155 q 638 133 652 122 q 665 111 692 111 q 714 111 741 123 q 768 134 791 154 q 834 191 859 250 q 884 309 884 374 q 884 504 788 583 q 693 662 535 662 q 453 662 383 637 q 312 611 256 562 q 188 502 153 424 q 118 346 118 251 q 118 167 148 103 q 177 39 239 -10 q 288 -49 356 -71 q 424 -92 500 -92 q 584 -92 663 -68 q 743 -44 808 0 l 830 -32 q 758 -85 677 -113 q 596 -140 508 -140 q 415 -140 338 -117 q 261 -95 203 -50 q 128 7 92 83 q 55 159 55 255 q 55 334 80 406 q 104 477 153 537 q 224 623 323 667 q 423 712 545 712 q 625 712 697 691 q 768 669 818 630 q 881 582 913 518 q 946 454 946 380 q 946 297 915 229 q 885 161 826 114 q 792 87 754 73 q 715 59 674 59 q 625 59 601 78 q 577 97 577 135 q 577 136 578 140 q 578 144 578 146 q 553 104 516 81 q 479 59 433 59 q 358 59 319 101 q 280 142 280 221 q 280 333 347 411 q 414 489 509 489 q 553 489 584 469 q 614 450 631 412 z m 587 231 l 616 349 q 608 393 581 417 q 554 442 515 442 q 444 442 396 378 q 348 313 348 218 q 348 164 373 135 q 398 106 444 106 q 494 106 533 140 q 573 175 587 231 z"},".":{"x_min":0,"x_max":262,"ha":262,"o":"m 120 -12 l 65 53 l 146 102 l 197 38 z"},"p":{"x_min":0,"x_max":475,"ha":475,"o":"m 134 192 l 134 163 q 134 80 153 60 q 172 39 226 39 q 295 39 331 82 q 367 125 367 206 q 367 292 328 347 q 290 403 231 403 q 209 403 187 393 q 164 384 152 370 q 142 357 138 322 q 134 286 134 192 z m 46 -280 q 59 -264 64 -219 q 69 -173 69 -72 l 69 83 l 69 135 q 69 304 64 368 q 59 432 46 447 l 137 458 q 136 447 135 433 q 134 419 133 394 q 168 425 204 442 q 239 458 270 458 q 344 458 394 395 q 444 331 444 235 q 444 126 365 57 q 286 -12 164 -12 q 161 -12 146 -11 q 142 -10 139 -10 l 139 -28 q 139 -29 139 -36 q 138 -63 138 -88 q 138 -187 143 -225 q 148 -264 160 -280 z"},"X":{"x_min":0,"x_max":593,"ha":593,"o":"m -3 0 q 31 26 67 64 q 104 102 137 146 l 258 307 l 146 477 q 88 565 60 599 q 32 633 11 641 l 118 641 q 136 641 147 633 q 158 625 180 590 l 311 378 l 381 475 q 414 521 428 551 q 442 582 442 607 q 442 616 440 625 q 438 633 433 641 l 564 641 q 517 592 435 478 l 421 458 l 335 340 l 520 75 q 540 46 557 29 q 574 12 595 0 l 500 0 q 474 0 460 8 q 446 16 430 41 l 283 272 l 217 179 q 209 168 196 149 q 133 61 133 34 q 133 23 136 15 q 140 6 147 0 z"},"*":{"x_min":0,"x_max":500,"ha":500,"o":"m 166 262 l 103 309 l 218 434 l 53 469 l 76 542 l 230 472 l 216 641 l 284 641 l 270 472 l 424 542 l 447 469 l 282 434 l 397 309 l 334 262 l 250 410 z"},"Y":{"x_min":0,"x_max":486,"ha":486,"o":"m 164 0 q 177 23 183 61 q 190 98 190 150 q 190 243 165 326 q 139 410 74 522 q 50 564 27 595 q 4 625 -14 641 l 20 641 l 67 641 q 98 641 113 629 q 129 617 147 580 q 175 521 200 458 q 224 395 252 309 l 337 465 l 343 477 q 393 570 393 599 q 393 610 388 621 q 384 631 375 641 l 503 641 q 431 534 385 461 q 339 388 318 348 q 295 302 285 253 q 275 204 275 102 q 275 73 280 48 q 285 22 295 0 z"},"c":{"x_min":0,"x_max":407,"ha":407,"o":"m 383 99 l 383 97 q 383 47 343 18 q 302 -12 236 -12 q 147 -12 88 51 q 30 115 30 214 q 30 321 96 390 q 163 458 268 458 q 296 458 320 455 q 343 452 365 446 l 362 341 q 349 382 324 402 q 299 423 263 423 q 196 423 154 367 q 113 312 113 220 q 113 142 154 92 q 196 43 261 43 q 299 43 331 58 q 363 72 383 99 z"},"!":{"x_min":0,"x_max":262,"ha":262,"o":"m 116 130 q 110 236 101 352 q 93 468 78 641 l 186 641 q 182 600 172 462 q 163 325 152 128 z m 67 39 l 132 102 l 199 52 l 134 -12 z"},"/":{"x_min":0,"x_max":278,"ha":278,"o":"m -24 -93 l 248 653 l 302 653 l 30 -93 z"},"[":{"x_min":0,"x_max":264,"ha":264,"o":"m 97 694 l 236 694 q 195 675 180 638 q 164 602 164 486 l 164 44 q 164 -72 180 -109 q 195 -146 236 -164 l 97 -164 z"},"6":{"x_min":0,"x_max":523,"ha":523,"o":"m 260 25 q 313 25 345 73 q 376 121 376 203 q 376 270 348 307 q 321 344 271 344 q 213 344 182 306 q 150 268 150 198 q 150 117 179 71 q 208 25 260 25 z m 150 313 q 170 348 210 367 q 250 387 300 387 q 378 387 422 342 q 466 296 466 216 q 466 117 407 52 q 348 -12 259 -12 q 168 -12 113 59 q 57 130 57 247 q 57 434 136 543 q 214 653 348 653 q 369 653 388 651 q 406 649 423 645 q 288 621 225 544 q 161 468 150 313 z"},"r":{"x_min":0,"x_max":310,"ha":310,"o":"m 46 0 q 58 9 62 34 q 67 59 67 127 l 67 223 l 67 254 q 67 362 62 396 q 58 429 46 437 q 64 440 91 445 q 118 449 121 449 q 136 449 137 408 q 138 395 138 388 q 162 425 187 441 q 212 458 244 458 q 269 458 283 448 q 298 437 298 420 q 298 406 288 398 q 278 390 259 390 q 251 390 233 392 q 215 393 205 393 q 164 393 151 366 q 138 338 138 237 q 138 222 139 180 q 139 138 139 111 q 139 59 144 34 q 148 9 160 0 z"},"2":{"x_min":0,"x_max":523,"ha":523,"o":"m 39 0 l 190 188 q 269 286 304 354 q 339 421 339 473 q 339 530 306 562 q 273 595 215 595 q 180 595 143 580 q 107 565 72 536 l 72 543 q 72 592 121 623 q 171 653 251 653 q 330 653 377 611 q 424 569 424 498 q 424 450 400 398 q 375 346 326 288 l 133 60 l 348 64 q 380 64 400 69 q 419 73 437 83 q 437 81 437 77 q 436 73 436 71 q 436 64 431 44 q 427 23 419 0 z"},"{":{"x_min":0,"x_max":500,"ha":500,"o":"m 419 659 q 415 659 408 660 q 400 660 397 660 q 338 660 317 637 q 296 614 296 541 l 296 423 q 296 342 275 308 q 253 274 199 259 q 253 244 275 210 q 296 176 296 95 l 296 -23 q 296 -96 317 -118 q 338 -141 400 -141 l 419 -141 l 419 -202 l 402 -202 q 354 -202 324 -196 q 294 -190 274 -177 q 247 -159 236 -128 q 225 -97 225 -24 l 225 95 q 225 169 198 199 q 171 229 106 229 q 103 229 95 229 q 88 228 84 228 l 84 290 q 88 290 95 290 q 103 289 106 289 q 171 289 198 319 q 225 349 225 424 l 225 543 q 225 618 236 648 q 247 679 274 696 q 294 709 324 715 q 353 721 402 721 l 419 721 z"},"9":{"x_min":0,"x_max":523,"ha":523,"o":"m 34 -19 q 75 -7 114 16 q 152 39 187 72 q 272 153 318 253 q 364 353 364 455 q 364 534 337 575 q 310 616 259 616 q 210 616 180 579 q 151 542 151 480 q 151 410 189 369 q 228 328 295 328 l 297 328 q 286 315 264 309 q 243 302 216 302 q 150 302 107 349 q 63 396 63 467 q 63 550 121 602 q 178 653 273 653 q 362 653 408 604 q 454 555 454 461 q 454 372 417 276 q 380 179 318 106 q 271 50 201 15 q 131 -21 73 -21 q 59 -21 50 -21 q 42 -20 34 -19 z"}," ":{"x_min":0,"x_max":262,"ha":262,"o":""},"I":{"x_min":0,"x_max":252,"ha":252,"o":"m 58 0 q 72 15 77 67 q 83 120 83 293 l 83 334 q 83 522 77 574 q 72 626 58 641 l 194 641 q 180 627 175 576 q 169 525 169 360 l 169 321 l 169 282 q 169 116 175 65 q 180 14 194 0 z"},"H":{"x_min":0,"x_max":637,"ha":637,"o":"m 468 361 l 468 394 q 468 535 462 580 q 457 625 442 641 l 579 641 q 565 627 560 576 q 554 525 554 360 l 554 321 l 554 282 q 554 116 560 65 q 565 14 579 0 l 442 0 q 457 17 462 65 q 468 113 468 248 l 468 324 l 169 324 l 169 248 q 169 101 175 58 q 180 16 194 0 l 58 0 q 72 15 77 67 q 83 120 83 293 l 83 334 q 83 522 77 574 q 72 626 58 641 l 194 641 q 180 625 175 583 q 169 541 169 394 l 169 361 z"},"4":{"x_min":0,"x_max":523,"ha":523,"o":"m 311 273 l 315 563 l 97 273 z m 389 193 q 389 86 394 48 q 398 10 410 0 l 289 0 q 301 10 305 48 q 310 86 310 193 l 310 225 l 16 225 q 131 383 205 478 q 279 573 347 653 l 389 653 l 389 273 l 412 273 q 430 273 452 274 q 474 275 498 277 q 488 251 466 240 q 444 229 389 226 z"},"~":{"x_min":0,"x_max":833,"ha":833,"o":"m 747 306 q 698 271 651 253 q 604 236 558 236 q 537 236 514 240 q 491 245 465 253 q 450 258 422 268 q 324 303 275 303 q 234 303 190 285 q 146 267 87 225 l 87 290 q 138 326 186 343 q 233 361 276 361 q 303 361 333 355 q 362 349 418 329 q 425 327 439 321 q 517 293 559 293 q 600 293 644 311 q 688 329 747 370 z"},"D":{"x_min":0,"x_max":685,"ha":685,"o":"m 177 600 q 173 577 171 528 q 169 479 169 394 l 169 248 q 169 184 170 140 q 171 96 174 79 q 178 54 201 46 q 224 37 290 37 q 412 37 479 111 q 546 184 546 318 q 546 458 476 534 q 405 610 276 610 q 249 610 225 607 q 200 605 177 600 z m 58 0 q 72 15 77 67 q 83 120 83 293 l 83 334 q 83 522 77 574 q 72 626 58 641 l 131 641 q 175 641 249 647 q 322 653 353 653 q 491 653 569 572 q 648 491 648 350 q 648 186 554 91 q 459 -5 298 -5 q 262 -5 205 -2 q 147 0 126 0 z"},"^":{"x_min":0,"x_max":1000,"ha":1000,"o":"m 539 712 l 793 440 l 716 440 l 500 654 l 284 440 l 206 440 l 460 712 z"},"0":{"x_min":0,"x_max":523,"ha":523,"o":"m 126 296 q 126 162 160 94 q 193 27 261 27 q 329 27 364 98 q 398 170 398 310 q 398 465 366 540 q 335 615 270 615 q 199 615 163 534 q 126 453 126 296 z m 246 -12 q 138 -12 87 63 q 36 139 36 300 q 36 485 94 569 q 151 653 277 653 q 387 653 437 575 q 487 497 487 324 q 487 152 428 70 q 369 -12 246 -12 z"},"F":{"x_min":0,"x_max":440,"ha":440,"o":"m 169 346 q 200 344 225 344 q 250 343 270 343 q 308 343 343 346 q 377 349 410 355 q 390 323 350 310 q 310 297 206 297 l 169 297 l 169 248 q 169 101 175 58 q 180 16 194 0 l 58 0 q 72 15 77 67 q 83 120 83 293 l 83 334 q 83 522 77 574 q 72 626 58 641 l 127 641 q 147 641 209 643 q 271 644 312 644 q 345 644 372 643 q 399 641 420 638 l 424 555 q 409 583 372 594 q 334 605 252 605 q 233 605 215 604 q 197 604 178 602 q 173 580 171 531 q 169 483 169 394 z"},"`":{"x_min":0,"x_max":500,"ha":500,"o":"m 128 683 l 215 683 q 232 643 258 599 q 284 556 317 512 q 261 524 214 566 q 168 608 128 683 z"},"k":{"x_min":0,"x_max":403,"ha":403,"o":"m 46 0 q 58 8 63 40 q 68 72 68 155 q 68 177 67 240 q 67 302 67 343 q 67 382 67 442 q 68 502 68 524 q 68 607 61 641 q 54 675 37 686 l 139 701 l 139 263 q 202 307 240 350 q 277 393 277 419 q 277 427 275 434 q 273 441 269 447 l 370 447 l 241 309 q 228 296 220 288 q 211 281 203 274 q 254 208 324 108 q 395 8 415 0 l 311 0 l 164 222 q 158 231 152 237 q 146 242 142 242 q 142 242 141 242 q 140 241 139 241 l 139 127 q 139 59 144 34 q 148 9 160 0 z"},"u":{"x_min":0,"x_max":468,"ha":468,"o":"m 342 -6 l 337 -6 q 335 -6 334 -5 q 333 -4 333 -1 l 333 3 l 331 76 q 308 34 272 11 q 237 -12 196 -12 q 157 -12 127 5 q 98 21 82 52 q 71 73 66 104 q 62 136 62 207 l 62 226 q 62 310 63 391 q 63 405 63 408 q 63 425 59 433 q 54 441 43 447 l 108 457 q 110 457 112 458 q 114 458 115 458 q 128 458 132 452 q 136 446 136 423 l 133 191 l 133 185 q 133 112 155 80 q 177 49 227 49 q 282 49 305 87 q 328 125 328 229 l 328 345 q 328 395 323 418 q 318 440 308 447 l 405 458 q 403 420 401 346 q 399 273 399 186 l 399 130 q 399 62 404 36 q 409 10 421 0 z"},"]":{"x_min":0,"x_max":264,"ha":264,"o":"m 167 -164 l 28 -164 q 69 -146 84 -109 q 100 -72 100 44 l 100 486 q 100 602 84 638 q 69 675 28 694 l 167 694 z"},"U":{"x_min":0,"x_max":657,"ha":657,"o":"m 490 0 l 493 94 q 462 43 408 15 q 354 -12 286 -12 q 180 -12 131 39 q 82 91 82 202 q 82 232 83 272 q 83 312 83 321 q 83 518 77 572 q 72 626 58 641 l 194 641 q 179 627 174 566 q 168 504 168 294 q 168 140 203 91 q 237 42 324 42 q 413 42 450 103 q 488 164 488 321 q 488 519 482 573 q 477 626 463 641 l 600 641 q 585 626 580 573 q 574 519 574 321 q 574 123 580 69 q 585 15 600 0 z"},"o":{"x_min":0,"x_max":486,"ha":486,"o":"m 238 421 q 176 421 144 374 q 111 326 111 236 q 111 139 150 82 q 190 26 257 26 q 315 26 345 75 q 375 125 375 222 q 375 311 337 366 q 298 421 238 421 z m 255 458 q 350 458 403 402 q 456 346 456 248 q 456 128 396 58 q 336 -12 235 -12 q 138 -12 84 47 q 30 107 30 214 q 30 324 92 391 q 155 458 255 458 z"},"N":{"x_min":0,"x_max":662,"ha":662,"o":"m 126 565 l 129 242 q 130 126 137 76 q 145 26 162 0 l 46 0 q 65 25 74 115 q 83 206 83 380 q 83 534 75 580 q 67 626 46 641 l 150 641 q 178 641 213 588 q 222 575 227 567 q 255 525 314 436 q 451 227 534 114 l 535 394 q 535 529 529 576 q 523 624 509 641 l 604 641 q 589 627 584 568 q 578 509 578 328 l 578 200 l 578 -3 l 513 -3 q 480 50 348 241 q 215 433 126 565 z"},"+":{"x_min":0,"x_max":833,"ha":833,"o":"m 446 596 l 446 327 l 709 327 l 709 270 l 446 270 l 446 0 l 388 0 l 388 270 l 124 270 l 124 327 l 388 327 l 388 596 z"},"G":{"x_min":0,"x_max":671,"ha":671,"o":"m 483 322 l 617 322 q 604 304 599 267 q 594 230 594 139 q 594 79 597 50 q 599 22 605 5 q 553 2 476 -5 q 400 -12 377 -12 q 212 -12 125 69 q 37 151 37 303 q 37 465 144 559 q 251 653 437 653 q 470 653 510 650 q 549 647 593 641 l 593 524 q 556 565 508 586 q 459 607 399 607 q 280 607 210 530 q 141 452 141 319 q 141 186 217 112 q 292 37 426 37 q 448 37 466 39 q 483 41 500 45 q 504 70 506 99 q 508 128 508 163 q 508 231 502 269 q 496 306 483 322 z"},"q":{"x_min":0,"x_max":477,"ha":477,"o":"m 248 30 q 308 30 337 78 q 366 126 366 225 q 366 313 331 367 q 295 421 238 421 q 176 421 144 374 q 111 326 111 236 q 111 141 148 85 q 186 30 248 30 z m 312 12 q 408 -46 491 -75 q 575 -105 645 -105 q 651 -105 657 -105 q 664 -104 671 -104 q 656 -125 629 -135 q 603 -146 564 -146 q 494 -146 409 -112 q 324 -79 219 -9 q 130 -7 80 52 q 30 111 30 214 q 30 324 92 391 q 155 458 255 458 q 345 458 396 403 q 447 347 447 250 q 447 158 412 97 q 377 36 312 12 z"},"d":{"x_min":0,"x_max":481,"ha":481,"o":"m 252 41 q 302 41 323 69 q 344 98 344 180 q 344 314 343 351 q 341 388 337 398 q 332 411 318 417 q 303 423 279 423 q 201 423 155 370 q 110 316 110 223 q 110 142 150 91 q 189 41 252 41 z m 428 701 q 422 652 418 526 q 414 399 414 242 q 414 93 419 52 q 425 11 439 0 l 345 -6 q 343 6 342 16 q 341 27 341 38 l 341 50 q 320 21 285 4 q 250 -12 208 -12 q 128 -12 79 48 q 30 108 30 207 q 30 324 101 391 q 172 458 297 458 q 313 458 324 458 q 334 457 345 456 l 345 561 q 345 618 341 645 q 337 671 327 686 z"},"1":{"x_min":0,"x_max":523,"ha":523,"o":"m 197 0 q 211 14 217 71 q 223 128 223 319 l 223 362 l 223 417 q 223 537 217 575 q 211 612 197 624 l 309 653 q 305 537 303 446 q 301 354 301 321 q 301 123 307 69 q 312 15 327 0 z"},"5":{"x_min":0,"x_max":523,"ha":523,"o":"m 149 641 q 185 640 222 639 q 259 638 298 638 q 355 638 390 642 q 424 646 437 653 q 436 639 430 622 q 425 604 416 584 q 397 580 369 578 q 340 576 286 576 q 240 576 218 577 q 197 578 180 579 l 159 458 q 290 396 351 330 q 413 264 413 187 q 413 103 356 45 q 299 -12 214 -12 q 141 -12 105 15 q 69 42 67 100 q 97 73 129 60 q 161 47 195 47 q 251 47 287 87 q 323 126 323 189 q 323 254 271 308 q 219 361 108 409 z"}}}
